<?xml version="1.0" encoding="utf-8"?>
<!-- Generator: Adobe Illustrator 16.0.3, SVG Export Plug-In . SVG Version: 6.00 Build 0)  -->
<!DOCTYPE svg PUBLIC "-//W3C//DTD SVG 1.1//EN" "http://www.w3.org/Graphics/SVG/1.1/DTD/svg11.dtd">
<svg version="1.1" id="Layer_1" xmlns="http://www.w3.org/2000/svg" xmlns:xlink="http://www.w3.org/1999/xlink" x="0px" y="0px"
	 width="40px" height="40px" viewBox="0 0 40 40" enable-background="new 0 0 40 40" xml:space="preserve">
<path fill="none" stroke="#FFFFFF" stroke-width="3" stroke-miterlimit="10" d="M37.176,32.057c0,2.192-1.295,4.389-3.432,4.389
	H7.962c-2.137,0-4.231-2.195-4.231-4.389V6.603C3.73,4.413,5.825,3,7.962,3h25.782c2.137,0,3.432,1.413,3.432,3.603V32.057z"/>
<g>
	<g>
		<path fill="#FFFFFF" d="M7.366,32.688c8.966,0,17.932,0,26.899,0c0.869,0,1.576-1.047,1.049-1.82
			c-2.379-3.475-4.758-6.944-7.135-10.415c-0.41-0.599-1.361-0.876-1.904-0.245c-2.418,2.816-4.838,5.637-7.257,8.459
			c0.634,0.079,1.268,0.163,1.902,0.243c-1.968-4.003-3.937-8.007-5.904-12.01c-0.384-0.782-1.714-0.802-2.093,0
			c-2.201,4.654-4.404,9.311-6.605,13.968C5.653,32.27,7.742,33.5,8.41,32.089c2.202-4.655,4.404-9.312,6.606-13.967
			c-0.697,0-1.395,0-2.093,0c1.968,4.004,3.937,8.008,5.904,12.011c0.33,0.672,1.415,0.813,1.903,0.244
			c2.416-2.818,4.838-5.639,7.258-8.456c-0.635-0.082-1.27-0.164-1.903-0.246c2.378,3.472,4.756,6.942,7.136,10.414
			c0.346-0.606,0.695-1.215,1.045-1.821c-8.97,0-17.936,0-26.901,0C5.802,30.266,5.802,32.688,7.366,32.688z"/>
	</g>
</g>
<g>
	<g>
		<path fill="#FFFFFF" d="M30.963,10.318c-0.085,1.564-2.339,1.564-2.426,0C28.453,8.753,30.878,8.761,30.963,10.318
			c0.083,1.555,2.508,1.563,2.424,0c-0.109-2.054-1.585-3.524-3.636-3.635c-2.049-0.111-3.534,1.748-3.634,3.635
			c-0.11,2.049,1.746,3.534,3.634,3.636c2.049,0.11,3.533-1.749,3.636-3.636C33.471,8.756,31.046,8.765,30.963,10.318z"/>
	</g>
</g>
</svg>
