<svg id="Layer_1" data-name="Layer 1" xmlns="http://www.w3.org/2000/svg" viewBox="0 0 64 64"><defs><style>.cls-1{fill:none;}.cls-2{fill:#fff;}</style></defs><title>icono_pedidos</title><rect class="cls-1" width="64" height="64"/><path class="cls-2" d="M38.87,27.72l-9.43,9.43-3.77-3.77a2.67,2.67,0,1,0-3.77,3.77l5.66,5.65a2.67,2.67,0,0,0,3.77,0L42.64,31.49a2.67,2.67,0,1,0-3.77-3.77ZM48,5.33H44.87A8,8,0,0,0,37.33,0H26.67a8,8,0,0,0-7.54,5.33H16a8,8,0,0,0-8,8V56a8,8,0,0,0,8,8H48a8,8,0,0,0,8-8V13.33A8,8,0,0,0,48,5.33Zm-21.33,0H37.33a2.67,2.67,0,1,1,0,5.33H26.67a2.67,2.67,0,1,1,0-5.33ZM50.67,56A2.67,2.67,0,0,1,48,58.67H16A2.67,2.67,0,0,1,13.33,56V13.33A2.67,2.67,0,0,1,16,10.67h3.13A8,8,0,0,0,26.67,16H37.33a8,8,0,0,0,7.54-5.33H48a2.67,2.67,0,0,1,2.67,2.67Z"/></svg>