<?xml version="1.0" encoding="utf-8"?>
<!-- Generator: Adobe Illustrator 21.0.0, SVG Export Plug-In . SVG Version: 6.00 Build 0)  -->
<svg version="1.1" id="Layer_1" xmlns="http://www.w3.org/2000/svg" xmlns:xlink="http://www.w3.org/1999/xlink" x="0px" y="0px"
	 viewBox="0 0 120 120" style="enable-background:new 0 0 120 120;" xml:space="preserve">
<style type="text/css">
	.st0{fill:#30AAD7;}
	.st1{fill:#0099CC;}
	.st2{fill:#FFFFFF;}
</style>
<g>
	<path id="XMLID_8_" class="st0" d="M120,60c0,33.1-26.9,60-60,60C26.9,120,0,93.1,0,60C0,26.9,26.9,0,60,0C93.1,0,120,26.9,120,60z
		"/>
	<path class="st1" d="M120,60c0-33.1-26.9-60-60-60v120C93.1,120,120,93.1,120,60z"/>
	<g>
		<path class="st2" d="M56.4,49.4L42.7,68.2H40l0-13.3c-3.2,4.4-6.6,9-9.7,13.3h-2.7l0-18.8h3.7l0,12.4l9-12.4h3.4l0,12.4l9-12.4
			H56.4z"/>
		<path class="st2" d="M75.6,52.9H61.8l-1.5,4.2h11.1l-1.3,3.4H59l-1.5,4.2h13.8L70,68.2H52.8l6.8-18.8h17.3L75.6,52.9z"/>
		<path class="st2" d="M95.6,56.7c-0.2,0.5-0.4,0.9-0.7,1.3c0.4,0.6,0.5,1.5,0.1,2.5l-1.5,4c-0.7,2-3,3.6-5,3.6H73.4l6.8-18.8h14.4
			c2,0,3,1.6,2.3,3.6L95.6,56.7z M91.5,60.5c0-0.1,0-0.2-0.1-0.2H79.9c-0.1,0-0.2,0.1-0.2,0.2l-1.5,4c0,0.1,0,0.2,0.1,0.2h11.5
			c0.1,0,0.2-0.1,0.2-0.2L91.5,60.5z M82.6,52.9c-0.1,0-0.2,0.1-0.2,0.2L81,56.7c0,0.1,0,0.2,0.1,0.2h10.8c0.1,0,0.2-0.1,0.2-0.2
			l1.3-3.7c0-0.1,0-0.2-0.1-0.2H82.6z"/>
	</g>
</g>
</svg>
