<svg id="Layer_1" data-name="Layer 1" xmlns="http://www.w3.org/2000/svg" viewBox="0 0 64 64"><defs><style>.cls-1{fill:none;}.cls-2{fill:#fff;}</style></defs><title>icono_inventario</title><rect class="cls-1" width="64" height="64"/><path class="cls-2" d="M59.38,12.12,33.38.3a3.33,3.33,0,0,0-2.76,0l-26,11.82a3.33,3.33,0,0,0-2,3v33.7a3.33,3.33,0,0,0,2,3l26,11.82a3.33,3.33,0,0,0,2.76,0l26-11.82a3.33,3.33,0,0,0,2-3V15.15A3.33,3.33,0,0,0,59.38,12.12Zm-30,45.14L8,47.56V18.36l21.33,9.69ZM32,23.41,12.33,14.47,32,5.53l19.67,8.94ZM56,47.56,34.67,57.26V28.05l8-3.61V37.2a2.67,2.67,0,1,0,5.33,0V22l8-3.66Z"/></svg>