<?xml version="1.0" encoding="utf-8"?>
<!-- Generator: Adobe Illustrator 21.0.0, SVG Export Plug-In . SVG Version: 6.00 Build 0)  -->
<svg version="1.1" id="Layer_1" xmlns="http://www.w3.org/2000/svg" xmlns:xlink="http://www.w3.org/1999/xlink" x="0px" y="0px"
	 viewBox="0 0 328 70" style="enable-background:new 0 0 328 70;" xml:space="preserve">
<style type="text/css">
	.st0{fill:#FFFFFF;}
	.st1{fill:#7DBE41;}
</style>
<g>
	<path class="st0" d="M17.3,24.8c0,0.1,0.1,0.1,0.2,0.1c0.6,0.7,1.2,1.4,1.8,1.8h0.2c0.7,0,0.9,0.3,1.6,0.3h0.3
		c0.4-0.4,0.6-0.9,0.6-1.4c0.3-1.2,0.6-2.8,1.1-3.7c0.3-0.4,0.6-0.7,0.6-1.1c0-0.3,0.1-0.5,0-0.8c-0.1-0.4-0.2-0.8-0.5-1.1l-0.1-0.1
		c-0.7-0.9-2.1-1-3-1.7c-0.1-0.1-0.2-0.1-0.4-0.1h-0.1c-0.1-0.5-0.7-0.4-1.1-0.5c-0.4-0.1-0.9-0.3-1.1-0.3c-0.6,0-1,0.5-1.4,0.6
		c-0.1,0.2-0.1,0.4-0.1,0.6c0,0.3,0.2,0.6,0.2,0.9c-0.1,0.6-0.4,1.2-0.5,1.9c-0.1,0.6-0.4,1.2-0.3,1.9l0,0.1
		C15.6,23.7,16.6,24.1,17.3,24.8z M17.3,40.4c0.6-1.6,1-4,1.2-5.8c0.1-1,0-1.9-0.1-2.5c-0.2-1.2-0.6-2.1-1.6-2.8
		c-1.4-0.6-1.9-1.4-3.5-1.4c-0.8,0.9-0.6,1.6-0.5,3.2c0,1.3-0.3,2.1-0.5,2.8c-0.3,1.1-0.9,2.1-1.1,3.2c-1.4,2.5-2.1,4.2-3.1,6.1
		c-1,1.7-1.4,2.8-1.9,3.4c-0.5,0.8-0.8,1.5-1.2,2.3c-0.8,1.7-1.5,3.4-2.4,5c-0.2,1.2-0.8,2.1-1.2,3.2c-0.4,1.3-1.1,2.7-1.4,4.1
		c-0.1,1-0.2,1.9-0.1,2.8c0.2,1.5,0.9,2.7,2.1,3.2l2,0.8c0.4,0.1,0.8,0.1,1.3,0.2c0.2,0.1,0.4,0.2,0.6,0.2h0.5c0.3,0,0.7,0,1-0.1
		c0.3-0.1,0.5-0.3,0.8-0.3c0.2-0.1,0.5,0,0.7-0.1c0.3-0.1,1.1-0.8,1-1.4l0-0.2c-0.1-0.5-0.8-0.8-0.9-1.4c1-4.5,2.6-8.8,4.2-13.2
		C14.5,47.9,16.1,44.4,17.3,40.4z M74,10.4c0.9-1.9,1.5-3.8,2.3-5.6c0.2-0.5,0.6-1,0.7-1.5c0-0.3-0.3-1-0.4-1.3
		C76,1,74.8,1,73.7,0.6C72.9,0.4,71.8,0,70.8,0c-0.2,0-0.4,0-0.6,0.1c-0.7,0.1-2.6,1.3-2.8,1.9c-0.2,0.3-0.1,0.7-0.2,1.1
		c-0.3,1-1.1,1.6-1.9,2.3c-3.1,3.4-6.3,7-9.2,10.5c-3.1,3.8-10,12-12.8,15.9c0,0.1-0.1,0.1-0.2,0.1c-0.1,0-0.3,0-0.4-0.1
		c1-4.8,2.3-12.3,3.1-17.5l0.9-6.1C47,7.2,47.2,5.8,47,4.8l-0.1-0.5c-0.3-0.8-1-1.6-1.6-1.9c-0.7-0.2-1.7-0.2-2.7-0.3
		c-2.2,0-3.9,0.2-4.8,1.6c-0.1,0.6-0.3,1.2-0.6,2.1c-0.1,0.8-0.9,1.6-1.4,2.5c-1.5,2.8-3.8,7.7-5.4,10.2c-3.6,7.4-6.7,15.2-9.8,23
		c-1.2,3-1.8,4.8-3,7.6c-0.2,0.8-0.9,2.1-1.4,2.5c-0.2,0.1-0.6,0.3-0.7,0.5c-0.2,0.3-0.3,0.8-0.4,1.4c0.4,1,1.4,1.4,2.3,2
		c0.4,0.3,0.9,0.8,1.1,0.8h0.2c0.5,0,1.3-0.2,1.7-0.5c0.4-0.2,0.9-1,1.1-1.7c1.3-2.2,1.8-3.6,2.7-5.6c0.7-1.6,1.4-3.2,1.9-4.7
		c1.4-3.1,2.7-6.1,3.7-9.4c1.6-4,3.2-7.8,4.9-11.5c0.4-0.9,0.7-1.6,1.1-2.1c-0.2,5.2-1.2,10.9-2.1,16.1c-0.1,1.2-0.4,2.8-0.2,4.1
		c0.1,0.5,0.2,0.9,0.4,1.3c0.1,0.3,0.3,0.7,0.6,1c0.6,1,1.1,1.3,2.2,1.7c0.2,0.1,0.6,0.1,0.8,0.3l1.5,0.8c0.2,0.1,0.4,0.2,0.8,0.2
		c0.2,0,0.4,0,0.7-0.1c0.9-0.4,1.5-1.6,2-2.3c0.7-1,1.3-1.8,1.8-2.6c1.4-2.4,4.2-6.3,6-8.9l5.3-7.3c0.7-1,1.4-2.5,1.9-2.8
		c-2.4,6.3-5.6,13.8-7.4,21c-0.8,3.2-1.8,6-1.5,8.5c0.1,0.5,0.2,1,0.4,1.5c0.7,1.4,1.6,2.8,3.8,2.8c0.2,0.1,0,0.3,0.3,0.4
		c0.4,0,1.1-0.3,1.3-0.5h0.1c0.2,0,0.2,0.1,0.4,0.1h0.1c0.1-0.5,0.6-0.8,0.9-1.3c0.6-1,0.6-1.3,1-2.5c0.2-0.8,0.6-1.7,0.8-2.5
		c0.2-0.9,0.5-1.7,0.8-2.5l0.1-0.9c0-0.4,0.3-0.8,0.4-1.3c0.3-1,0.6-1.8,0.9-2.7l0.5-1.2c0.2-0.3,0.1-0.5,0.3-0.9c0.3-1,0.6-2,1.1-3
		l1.2-3c0.3-1,0.8-1.9,1.2-2.9c0.5-1,0.7-2.1,1.1-3c0.8-1.9,1.5-3.7,2.5-5.5C69.4,19.5,72.2,13.8,74,10.4z M126.4,26.7
		c-0.2-1.6-1.3-2.7-2.3-3.3c-0.4-0.1-0.9-0.2-1.3-0.4c-0.8-0.3-1.8-0.8-3-0.9c-0.5,0-1.3,0-1.6,0.1c-0.6,0.4-0.6,0.8-0.5,1.4
		l0.1,0.7c0.1,0.6-0.3,1-0.4,1.5c-2.8,6.3-7.6,12.4-12.6,18.6c-0.4,0.3-0.7,1-1.2,1h-0.1c0.2-0.7,0.5-1.9,0.7-2.5
		c1.7-4.3,1.1-2.8,4.2-9.1c0.6-1.3,1.7-3.1,2.2-4.7c0.3-0.7,0.5-1.6,0.3-2.5c-0.3-2-1.1-2.9-2.3-3.9c-0.8-0.5-1.6-0.9-2.5-1.2
		c-0.1,0-0.1-0.1-0.2-0.1c-0.8-0.3-1.5-0.8-2.5-0.8c-0.6,0-2,0.2-2.3,0.7c0.4,0.3,1,0.6,1.1,1.2c0.3,2.2-2.9,9.3-3.7,11.6
		c-0.7,1.9-1.2,3.9-1.6,6.1c-0.1,1.2-0.1,2.5,0,3.8c0.2,1.2,0.6,2.5,1.3,3.6l0.1,0.1c0.4,0.5,0.8,1,1.5,1.2c0.2,0.1,0.4,0.1,0.6,0.2
		c1.4,0.8,2.3,1.2,3.2,1.2c0.7,0,1.3-0.3,1.9-0.8c0.9-0.9,4.2-3.8,5.3-4.6c-0.4,1.5-1.6,5.1-2.8,8.1c-1.2,3-2.5,6.7-3.6,9.5
		c-1.3,3.2-2.9,6-3.7,7.5c0.1,0.1,0.1,0.1,0.2,0.1c0.1,0,0.3-0.1,0.5-0.1c0.2,0.1,0.6,0.1,0.9,0.1c0.9,0,2.2-0.3,2.7-0.5
		c0.8-0.5,1.7-1,2.2-1.7c0.5-0.5,0.9-1.2,1.4-1.7l1-1.5c1.8-2.5,2.8-4.4,4.6-7.6c1.4-2.4,3.9-8.6,5.2-11.9l0.3-0.8
		c0.6-1.4,1.1-3,1.8-4.3c0.8-1.3,1.2-2.9,1.9-4.2c0.3-0.6,0.7-1.4,0.9-2.2c0.3-0.7,0.7-1.3,1-2.1C125.8,30.2,126.7,28.5,126.4,26.7z
		 M96.8,25.5c-0.1-0.9-0.7-1.9-2.3-2.4c-0.9-0.3-2.1-0.5-3-0.5c-0.3,0-0.6,0-0.8,0.1c-0.9,0.3-1,1.2-1.3,1.9c-1,1-1.7,2.8-2.5,4
		c-1.7,2.1-2.9,4.5-4.6,6.7c-2.2,3-5.1,5.9-7.6,8.3c-0.5,0.4-0.9,1-1.5,1.2c1.4-4.3,4-9,6.5-13.3c1.3-2.3,2.2-3.2,3.3-5.2
		c0.1-0.3,0.4-0.5,0.4-0.8c0-0.1,0-0.2,0-0.3c-0.1-0.5-0.5-0.9-0.7-1.2c-0.9-0.6-1.8-1.4-2.8-1.7c-1.1-0.4-2.1-1-3-1.4
		c-0.6-0.1-1.4-0.5-2.2-0.5c-0.3,0-0.7,0.1-0.9,0.3c-0.1,1-0.6,2-1,2.9c-0.7,1.4-1.5,2.7-2.1,3.9c-1.7,3.3-3.2,7.4-4,11.1
		c-0.4,1.8-0.9,4-0.6,6.1l0.1,0.7c0.5,1.9,1.4,3,2.8,4l1.2,0.7c0.4,0.2,0.8,0.2,1.1,0.3c0.6,0.3,2.1,1.1,2.6,1.1H74
		c1-0.6,2-1.3,3-2.1l0.5-0.7c0.7-0.3,3.5-4.2,4.3-5.5c0.7-1,1.7-2.1,2.5-3.4c0,0.8,0,1.6,0.1,2.3c0.3,2.1,1.2,4.1,3.1,4.6
		c0.7,0.6,1.7,1.1,2.8,1.4c0.4,0.1,0.8,0.2,1.2,0.3c0.2,0,0.2-0.1,0.2-0.1l0-0.1h0.1c2.5,0,2.7-2.5,3.8-4.6c0-0.4,0.2-0.8,0.1-1.1
		c0-0.1,0-0.1-0.1-0.3c0.1-0.5,0.4-1,0.5-1.5c0.1-0.3,0.2-0.7,0.2-1c0-0.1-0.1-0.1-0.1-0.2c-0.5,0.1-0.8,0.4-1.3,0.7
		c-1,0.9-2.2,1.7-3.8,2.1c0.2-1.7,0.9-3,1.5-4.6c0.9-2.5,1.9-5.1,3.2-7.8c0.1-1,0.6-1.4,0.7-2.5c0-0.1,0.1-0.1,0-0.1
		C96.8,26.8,96.9,26.2,96.8,25.5z"/>
	<path class="st1" d="M178.5,14.6c0.1-1.2,0.1-2.3-0.1-3.3c-0.2-1.1-0.4-2.1-0.8-3c-1.1-3.6-4.2-5.6-7.3-7c-1.6-0.7-2.8-1.2-4.9-1.2
		h-0.8c-3.2,0.2-3.3,0.7-6.3,1.4c-0.1,0-0.1,0.1-0.2,0.1c-0.9,0.3-2.1,0.6-2.8,0.6h-0.1c-1,0-2.3-0.5-3.5-0.5c-0.3,0-0.7,0-1,0.1
		l0,0.2c0,0.3,0.2,0.4,0.3,0.9c0.1,0.9-0.7,2.2-1,3.2c-1,2.9-2.6,6.3-3.7,8.8c-2.3,5-3.7,8.3-5.1,11.7l-0.2,0.7
		c-1.6,3.7-2.9,7.4-4.3,11.1c-0.7,1.9-1.5,4.4-2.2,6.6c-0.3,1.9-1.2,4.3-1,6.7c0.2,1.4,0.9,2.5,1.7,3.4c0.5,0.5,2,1.1,2.6,1.4
		c0.3,0.2,0.7,0.3,1.1,0.3h0.2c0.3-0.1,0.7-0.6,1.1-0.8c0.9-0.7,1-1.5,1.4-2.6l0.2-0.3c0.1-0.7,0.2-1.5,0.4-2.2
		c0.8-3.7,2.5-7.6,3.7-11.1l0-0.1c0.1-0.5,0.5-1.6,0.9-1.7h0.1c0.3,0,1.2,0.4,1.8,0.5c1.3,0.3,2.1,0.3,2.9,0.3c0.6,0,1.2,0,1.9-0.1
		c4-0.3,12.4-4.3,16.4-8.2c2-1.9,3.6-4.1,5.1-6.5C176.3,21.7,178.1,17.9,178.5,14.6z M171.3,13.1c-1.5,3.9-5.4,8.5-8.1,10.9
		c-2.1,1.8-4.2,3.2-6.5,4.5c-2.4,1.3-4,2.2-7.5,2.5c1.4-3.5,3.4-7.7,5.3-11c2-3.5,2.2-4.8,4.9-9.8c0.9-0.9,3-1.9,4.3-2.3
		c1.2-0.5,2.9-1,4.2-1.2c0.5-0.1,1.5-0.3,2.4-0.3c0.5,0,0.9,0.1,1.2,0.3c0.4,0.3,0.6,1.1,0.7,1.7C172.4,10.1,171.9,11.8,171.3,13.1z
		 M200.8,32.2c-0.3,0.3-0.5,0.6-0.8,0.9c-0.8,1-1.7,1.9-3.2,2.1c0.8-1.9,1.6-3.6,2.6-5.3c0.3-0.4,0.5-0.9,0.7-1.4
		c0.6-0.8,1.1-1.7,1.3-2.8c0.1-0.4,0.1-0.9,0-1.4c-0.1-0.8-0.4-1.5-1-2.1c-0.4-0.3-1.1-0.3-1.9-0.5c-0.3-0.1-0.5-0.3-0.8-0.4
		c-0.3,0-0.7-0.1-1-0.1c-0.3,0-0.7,0.1-0.9,0.1c-0.5,0.2-0.7,0.6-1.1,0.8c-0.9,0.7-1.1,1.2-2,2.5c-2.8,4.2-5.2,6.8-7.9,9.3l-0.2-0.2
		c0.5-1.6,1.4-3.1,2.4-5.1l0.2-0.4c0.3-0.5,0.8-1.1,1-1.7c0.1-0.5,0.2-1.1,0.1-1.5c-0.1-0.7-0.4-1.2-1-1.6c-0.4-0.3-0.7-0.7-0.9-0.8
		c-0.1,0-0.1-0.1-0.1-0.1c-0.4-0.3-0.8-0.5-1.2-0.5h-0.1c-0.5-0.5-1.1-0.8-1.7-1.1c-0.3-0.1-0.5-0.3-0.8-0.4c-0.4-0.2-0.7-0.3-1-0.3
		c-0.8,0-1.3,0.5-1.7,1c-0.6,2.1-1.7,3.6-2.7,5.5c-2,3.6-3.9,7.2-5,11.4c-0.6,2.1-1.2,4.5-1.2,6.9c0,0.5,0,0.9,0,1.3
		c0.3,2.4,1.9,3.9,3.9,4.6c0.7,0.1,1.1,0.2,1.4,0.2c0.1,0,0.3,0,0.5-0.1c0.9,0,1.7-0.7,2-1.4c0.8-2.3,1-4,2.5-6.2
		c0.9-1.2,2.6-3.2,4.3-4.5l3.8-3.2c0.4,1.2,1.7,3.6,2.7,4.5c0.3,0.3,1.3,0.8,1.7,1h0.2c0.5,0,0.9-0.2,1.5-0.3c0.7-0.1,1.3-0.3,2-0.6
		c1-1.4,3.1-3.2,2.9-5.8C200.4,33.7,200.8,33.1,200.8,32.2z M276.3,39.4c-1.7,1.8-5.1,3.8-8.3,4.8c-0.5,0.1-1,0.2-1.4,0.2
		c-0.2,0-0.4,0-0.6-0.1c0.1-2.5,0.4-3.9,1.3-6.1l0.1-0.2c0.4-0.7,0.7-1.4,0.9-2.3c1.4-2.5,1.6-3.9,3.2-6.2c1.2,0,2.5-0.1,3.6-0.1
		c2.7-0.1,5-1.9,5.6-4.3c0.3-0.3,0.5-1,0.4-1.5l0-0.1c-0.3,0-0.8,0.4-1.4,0.6c-0.7,0.1-1.6,0.2-2.3,0.2c-1,0-1.8-0.1-2.5-0.3
		c1-1.9,1.1-2.1,2-4.1c0.4-0.8,0.7-1.6,1.2-2.3c0.3-0.3,0.6-0.6,0.8-1c0.2-0.5,0.3-1,0.2-1.4c-0.1-0.9-0.7-1.7-1.4-2.2
		c-0.5-0.3-1.1-0.4-1.8-0.8c-0.5-0.3-1.1-0.8-1.6-1c-0.6-0.2-1.3-0.3-2-0.3c-1.3,0-2.6,0.3-2.7,1.1l0.1,0.4c0,0.1,0,0.2,0,0.3
		c-3,6.8-8.6,14.9-9.7,23.3c0,0.1,0,0.1,0,0.2c-1.8,2.2-3.5,4.1-5.4,6l-0.2,0.2l-0.2,0.2c-1,0.9-1.9,1.7-3.1,2c0-1.7,0.5-3,1.1-4.2
		c0.8-2.3,3.3-5.6,4.3-7.8c0.4-0.9,0.9-1.8,1.3-2.7c0.6-1.2,1.1-2.6,1.4-4.1c-0.1-0.2-0.2-0.3-0.2-0.3c-0.1-0.8-1.4-1.9-2.4-2.5
		c-0.3-0.3-0.7-0.8-1.2-1c-0.3-0.6-2.1-0.7-2.7-0.8c-0.2,0.2-0.7,0.1-1,0.3c-2.3,0.5-5.8,5.8-8.9,9.9c-0.9,1.2-2.5,3-3.4,4.1
		c-0.1-0.1-0.2-0.3-0.2-0.5c-0.1-0.5,0.2-1.3,1.3-3.1l2.5-4.1c0.6-1,1.7-2.3,1.6-3.4l0-0.2c-0.7-0.3-1.1-1-1.7-1.5
		c-2.1-1.4-4.5-2.8-6.7-2.8h-0.3c-0.6,0.4-1.6,0.8-1.6,1.7c0,0.2,0.3,0.4,0.3,0.7c0,0.1,0,0.1,0,0.2l-0.5,0.5
		c-2.1,2.3-3.6,3.9-8.3,7.2c0-1.4-0.1-4.5-0.3-6.2l-0.1-0.6c-0.1-0.5-0.3-1.2-0.5-1.6c-0.4-0.8-1.6-1.4-2.4-1.7
		c-0.9-0.3-2.2-0.4-3.2-0.4H218c-1.5,0-3.7,0.8-4.6,2.2c0,0.3-0.2,0.8-0.4,0.8c-0.1,0-0.6-0.1-0.9-0.2c-0.8-0.3-1.5-0.3-2.1-0.3
		c-1.9,0-3.1,1.2-4.8,3.2c-1.1,1.3-2,2.7-2.7,4.2c-0.8,1.5-1.5,3.1-1.9,5c-0.4,1.8-0.8,3.8-0.7,6.1l0.1,1c0.4,2.7,1.3,5.2,3,6.6
		c0,0.1,0.1,0.2,0.2,0.3c0.7,0.4,3.1,2.3,4,2.3h0.1c1.1,0.4,2.3,0.8,3.6,0.8h0.3c1,0,1.7-0.3,2.6-0.5l0.2-0.2c1.8-0.5,2.6-1.8,4-2.6
		c1.5-1.9,3.2-3.5,4.3-5.6c1.4-2.5,1.8-3.3,2.7-6.4c0.3-0.5,4.7-4.6,5.7-5.1c-0.6,1.8-1.2,3.5-2.1,5.4l-1.6,4.6
		c-0.6,1.8-1.2,4.3-0.9,6.3c0.2,1.2,0.7,2.3,1.7,3c0.7,0.3,2.1,1,3.2,1c0.6,0,1.1-0.3,1.4-1c0.4-0.5,0.6-1,0.8-1.4
		c1.4-2.1,2.4-4,4.3-6c0.6-0.8,1.8-1.8,2.4-2.7c0.3-0.2,0.6-0.6,0.9-0.9c0.8-1,2-2.2,2.7-3.4c0,0.1,0,0.2,0,0.3
		c-0.3,1.7-1,4.9-0.6,7.2c0.1,0.8,0.3,1.4,0.7,1.9c0.1,0.3,0.5,0.6,0.6,1.1c0.4,0.5,0.8,1.1,1.4,1.4c1.9,1.7,4.4,2.7,7.4,2.7
		c2.4-0.3,4.2-3.2,5.8-5.3c0.3-0.5,0.6-1.1,0.9-1.6c0,0.2,0.1,0.4,0.1,0.5c0.3,0.8,0.5,1.7,1,2.5c0.1,0.5,0.5,1,1,1.5
		c1.1,0.8,1.9,2,3.6,2c0.4,0,1-0.1,1.5-0.3c0.6-0.2,1.2-0.5,1.8-0.5c1.7-0.9,3.9-2.3,5.1-3.6c0.5-0.6,1.1-1.2,1.5-1.8
		c0.4-0.4,0.7-1,0.6-1.2c0.2-0.8,0.2-1.2,0.5-1.9c0.2-0.3,0.2-0.7,0.3-1c0.2-0.7,0.4-1.2,0.6-1.9C276.9,38.4,276.7,38.9,276.3,39.4z
		 M216,42.2C216,42.2,215.9,42.2,216,42.2c-0.6,0.8-1.2,1.4-1.9,2.1c-1.3,1.2-2.4,2.6-4.7,3.1c-0.6-1-0.8-2.1-1-3.2
		c-0.2-1.4-0.1-2.8,0.2-3.9c0.4-1.3,0.7-2.2,1.1-3c0.4,0.2,0.8,0.6,1.1,0.8c0.6,0.3,1.2,0.8,1.9,1.2c0.8,0.4,2.4,0.7,3.7,0.7h0.7
		C216.9,40.7,216.4,41.5,216,42.2z M220.6,30.7c-0.3,1.4-0.6,2.7-0.9,3.7c0,0.1-0.1,0.1,0,0.1c-1.6,1.4-3.2,2.5-5.6,2.5
		c-1.2,0-1.9-1.1-2-2.2c0-0.3-0.1-0.7,0-1c0.3-1.2,4.2-4.6,5.7-5.2c0.7-0.5,2.1-1,1.9-2.2c0-0.1-0.1-0.3-0.1-0.4
		c-1.2-1.2-3-1.7-4.5-2.5c-0.4-0.2-0.7-0.3-1-0.5c0.1-0.1,0.3-0.1,0.5-0.1c0.7,0,1.6,0.4,2.3,0.5c1.2,0.4,1.6,0.3,2.5,0.8
		c0.8,0.7,1.1,1.7,1.3,2.8C220.8,28.4,220.7,29.7,220.6,30.7z M302.8,28.1c-0.1-0.3-0.1-0.6-0.3-0.7c0.1-0.7,0.1-1.4,0-2.3
		c-0.2-1.2-0.6-2.4-1.5-3.3c-0.5-0.3-1.2-0.8-1.9-1c-0.9-0.3-2-0.4-3.2-0.4h-1c-1.2,0.1-2.1,0.1-2.8,0.3c-0.9,0.2-1.8,0.6-2.4,0.8
		c-1,0.1-3.8,1.7-5.1,3c-0.8,1-1.6,1.6-2.1,2.4c-0.2,0.3-0.3,0.8-0.6,1l-0.8,1.3c-0.1,0.4-0.4,0.9-0.8,1.3c-0.8,1.9-1.6,3.7-1.9,5.9
		c-0.4,1.5-0.4,3.2-0.2,4.7c0.1,0.7,0.3,1.3,0.4,1.9c0.3,1.1,0.9,2.3,1.6,3.3c1.3,2.2,2.1,3.3,4.1,3.9c0.9,0.4,2.1,0.6,3,0.6
		c0.3,0,0.6,0,1,0.1c0.4-0.1,0.7-0.1,1.1-0.2l0.5-0.1c1.6-0.5,3.4-1.1,4.2-1.7c1.4-1.1,2.6-2.4,3.5-3.7c0.5-0.6,1.1-1.3,1.4-2.1
		l1.1-2.3c0.2-0.7,0.5-1.7,0.8-2.5c0.2-0.4,0.5-0.7,0.5-1c0.3-0.5,0.3-1,0.3-1.4c0.2-0.9,0.5-1.7,0.7-2.5c0.2-0.8,0.2-1.7,0.5-2.6
		C302.5,29.8,302.7,29,302.8,28.1z M296.5,32.7c-0.8,3.5-2.4,6.5-4.6,9.6c-0.9,1.5-2.7,3-4.7,4c-0.5-0.6-0.8-1.3-0.9-2
		c-0.1-1,0.1-2.1,0.3-3l0.1-0.1c0.1-1.3,0.8-2.5,0.9-3.6c1.1-1.7,1.4-3.5,2.7-5c0.2-0.3,0.4-0.5,0.6-0.8c0.1-0.2,0.3-0.6,0.4-0.8
		c0.5-0.6,1.2-1,1.6-1.4l1.5-1.4c0.5-0.5,1.1-1,1.9-1.5h0.1c0.2,0.1,0.3,0.1,0.3,0.3c0,0.1,0,0.3,0,0.4l0.1,0.5
		C297.1,29.6,297,31.4,296.5,32.7z"/>
	<path class="st0" d="M309.3,56.9c-1.1,0-1.9-0.5-2.8-0.7c-1.2-1.4-3.6-2.3-4-4.8l-0.1-0.4c-0.2-1.2-0.1-2.8,0.1-3.7
		c0.1-0.1,0.1-0.1,0.1-0.1s0.4,0.1,0.5,0.1c0.3-0.5,0.8-0.8,1.5-0.8c0.3,0,0.5,0,0.8,0.1c0.8,0.1,1.5,0.6,2.5,1
		c1.2,0.5,2.4,0.7,3.1,1.7c0.2,0.3,0.5,0.8,0.6,1.3c0,0.1,0,0.2,0,0.3c0,0.5-0.3,1-0.5,1.6c-0.5,1.4-0.9,3.2-1.6,4.3H309.3z
		 M320.2,25c-0.3,1.4-1.3,2.3-1.5,3.6c-1,1.3-1.5,3.1-2.9,4.1c-0.6,2.1-2.1,3.5-3,5.3c-0.5,0.2-0.7,0.7-1.1,1
		c-0.6,1.4-1.5,2.5-2.4,3.6c-0.5,0.1-0.8,0.4-1.1,0.4c-0.1,0-0.4-0.1-0.5-0.1c-0.6-0.2-1.1-0.5-1.5-1.1c-0.2-0.3-0.3-0.5-0.4-0.8
		c-0.2-2,0.5-3.5,1.1-5.1c0.5-1.4,0.8-2.9,1.4-4.1c0.9-2.5,2.1-5.4,3.1-7.9c1-2.5,3.8-9.8,4.9-12.5c0.8-2,1.6-4.1,2.2-6.5
		c0.2-0.8,0.5-1.9,0.4-2.5c-0.2-0.8-1-1-1.2-1.9c0.1-0.4,0.5-0.5,0.9-0.5c0.5,0,1.1,0.1,1.5,0.1c0.3,0,0.5-0.1,0.7-0.1h0.2
		c1.1,0,2.1,0.5,3,0.9l0.3,0.1c1.8,0.8,3,1.4,3.5,3.6l0.1,0.4c0.2,1.2,0,2.7-0.5,3.9c-1.4,4.1-3.9,9.8-6,13.8
		C321.1,23.6,320.8,24.4,320.2,25z"/>
</g>
</svg>
