<?xml version="1.0" encoding="utf-8"?>
<!-- Generator: Adobe Illustrator 21.0.0, SVG Export Plug-In . SVG Version: 6.00 Build 0)  -->
<svg version="1.1" id="Layer_1" xmlns="http://www.w3.org/2000/svg" xmlns:xlink="http://www.w3.org/1999/xlink" x="0px" y="0px"
	 viewBox="0 0 500 70" style="enable-background:new 0 0 500 70;" xml:space="preserve">
<style type="text/css">
	.st0{fill:#FFFFFF;}
	.st1{fill:#30AAD7;}
</style>
<path class="st0" d="M149.6,63.4l-8.1,0c-1.2,0-2-1-1.9-2.2L147,8.8c0.7-4.8-2.7-8.8-7.5-8.8h-5.9c-0.4,0-0.7,0.3-0.7,0.7l-0.7,5.3
	c-0.1,0.4,0.2,0.7,0.6,0.7h5.9c1.2,0,2,1,1.9,2.2L133,61.2c-0.7,4.8,2.7,8.8,7.5,8.8h8.1c0.4,0,0.7-0.3,0.7-0.7l0.7-5.3
	C150.2,63.7,149.9,63.4,149.6,63.4z M173.6,63.4l-8.1,0c-1.2,0-2-1-1.9-2.2L171,8.8c0.7-4.8-2.7-8.8-7.5-8.8h-5.9
	c-0.4,0-0.7,0.3-0.7,0.7l-0.7,5.3c-0.1,0.4,0.2,0.7,0.6,0.7h5.9c1.2,0,2,1,1.9,2.2l-7.4,52.5c-0.7,4.8,2.7,8.8,7.5,8.8h8.1
	c0.4,0,0.7-0.3,0.7-0.7l0.7-5.3C174.3,63.7,174,63.4,173.6,63.4z M260.7,19.7h-23.4c-4.8,0-9.3,3.9-10,8.7L224,52.5h-8.7l3.4-24.1
	c0.7-4.8-2.7-8.7-7.5-8.7h-23.4c-0.4,0-0.7,0.3-0.7,0.7l-0.7,5.3c-0.1,0.4,0.2,0.7,0.6,0.7h23.4c1.2,0,2.1,1,1.9,2.2l-1.1,7.7
	c0,0-21.7,0-24.1,0c-4.8,0-9.3,3.9-10,8.7l-0.8,5.5c-0.7,4.8,2.7,8.7,7.5,8.7h45.3c0.4,0,0.7-0.3,0.7-0.7l4.2-30
	c0.2-1.2,1.3-2.2,2.5-2.2h23.4c0.4,0,0.7-0.3,0.7-0.7l0.7-5.3C261.3,20,261.1,19.7,260.7,19.7z M208.6,52.5h-24.1
	c-1.2,0-2.1-1-1.9-2.2l0.8-5.5c0.2-1.2,1.3-2.2,2.5-2.2H210L208.6,52.5z M119.2,19.7H97.3c-4.8,0-9.3,3.9-10,8.7l-2.5,17.5H69.6
	c-1.2,0-2-1-1.9-2.2l2.5-17.5c3,0,4.8,0,4.8,0c0.4,0,0.7-0.3,0.7-0.7l0.7-5.3c0.1-0.4-0.2-0.7-0.6-0.7h-4.8l0.8-5.9
	c0.1-0.4-0.2-0.7-0.6-0.7h-5.2c-0.4,0-0.7,0.3-0.7,0.7l-0.8,5.9H22.9c-4.8,0-9.3,3.9-10,8.7v0l-0.8,6c0,0,0,0,0,0l0,0
	c-0.4,4.6,2.9,8.2,7.6,8.2h21.9c1.2,0,2.1,1,1.9,2.2l-0.8,5.5c-0.2,1.2-1.3,2.2-2.5,2.2H1.5c-0.4,0-0.7,0.3-0.7,0.7L0,58.4
	c-0.1,0.4,0.2,0.7,0.6,0.7h38.7c4.6,0,8.9-3.6,9.9-8.2l0,0c0,0,0,0,0,0l0.8-6v0c0.7-4.8-2.7-8.7-7.5-8.7H20.6c-1.2,0-2-1-1.9-2.2
	l0.8-5.5c0.2-1.2,1.3-2.2,2.5-2.2h41.6l-2.5,17.5c-0.7,4.8,2.7,8.7,7.5,8.7h15.6c0.4,3.8,3.5,6.6,7.5,6.6h30c0.4,0,0.7-0.3,0.7-0.7
	l0.7-5.3c0-0.4-0.2-0.7-0.6-0.7h-30c-1.2,0-2.1-1-1.9-2.2l1.1-7.7h32.2c0.4,0,0.7-0.3,0.7-0.7l1.9-13.6
	C127.4,23.6,124,19.7,119.2,19.7z M120.2,28.4l-1.1,7.7H92.8l1.1-7.7c0.2-1.2,1.3-2.2,2.5-2.2h21.9
	C119.5,26.3,120.3,27.2,120.2,28.4z M266.4,6.2c-0.3-0.8-0.8-1.5-1.4-2.1c-0.6-0.6-1.3-1.1-2.1-1.4c-0.8-0.3-1.7-0.5-2.6-0.5
	c-0.9,0-1.8,0.2-2.6,0.5c-0.8,0.3-1.5,0.8-2.1,1.4c-0.6,0.6-1.1,1.3-1.4,2.1c-0.3,0.8-0.5,1.6-0.5,2.6c0,0.9,0.2,1.8,0.5,2.6
	c0.3,0.8,0.8,1.5,1.4,2.1c0.6,0.6,1.3,1.1,2.1,1.4c0.8,0.3,1.7,0.5,2.6,0.5c0.9,0,1.8-0.2,2.6-0.5c0.8-0.3,1.5-0.8,2.1-1.4
	c0.6-0.6,1-1.3,1.4-2.1c0.3-0.8,0.5-1.6,0.5-2.6C266.9,7.8,266.7,7,266.4,6.2z M265.1,10.8c-0.3,0.7-0.6,1.2-1.1,1.7
	c-0.5,0.5-1,0.8-1.6,1.1c-0.6,0.3-1.3,0.4-2.1,0.4c-0.7,0-1.4-0.1-2.1-0.4c-0.6-0.3-1.2-0.6-1.6-1.1c-0.5-0.5-0.8-1-1.1-1.7
	c-0.3-0.6-0.4-1.3-0.4-2.1c0-0.7,0.1-1.4,0.4-2.1c0.3-0.6,0.6-1.2,1.1-1.7c0.5-0.5,1-0.9,1.6-1.1c0.6-0.3,1.3-0.4,2.1-0.4
	c0.7,0,1.4,0.1,2,0.4c0.6,0.3,1.2,0.6,1.6,1.1c0.5,0.5,0.8,1,1.1,1.7c0.3,0.6,0.4,1.3,0.4,2.1C265.5,9.5,265.3,10.2,265.1,10.8z
	 M262.6,8.5c0.2-0.3,0.3-0.7,0.3-1.2c0-0.2,0-0.5-0.1-0.7c-0.1-0.2-0.2-0.4-0.4-0.6c-0.2-0.2-0.4-0.3-0.7-0.5
	c-0.3-0.1-0.6-0.2-1.1-0.2H258V12h1.3l0-2.6h1.1l1.5,2.6h1.4l-1.6-2.7C262.1,9.1,262.4,8.9,262.6,8.5z M260.5,8.5h-1.2l0-2h1.2
	c0.4,0,0.7,0.1,0.9,0.2c0.2,0.2,0.3,0.4,0.3,0.7c0,0.3-0.1,0.6-0.3,0.8C261.2,8.4,260.9,8.5,260.5,8.5z"/>
<path class="st0" d="M334.7,45.8L329.4,28l-3.6,0l-5.3,17.7L315.2,28h-4l7.2,21.9h3.8l5.2-17.1l5.2,17.1h3.8l7.3-21.9H340
	L334.7,45.8z M351.6,40.6h10.7v-3.3h-10.7v-5.9h11.9V28h-15.6v21.9h16v-3.3h-12.3V40.6z M383,38.4c2.4-0.6,3.8-2.4,3.8-4.9
	c0-3.4-2.8-5.5-7.3-5.5H370v21.9h9.7c4.9,0,8-2.3,8-6C387.7,41,385.9,38.9,383,38.4z M373.7,31.3h5.6c2.3,0,3.7,1,3.7,2.8
	c0,1.8-1.4,2.9-3.7,2.9h-5.6V31.3z M379.3,46.6h-5.6v-6.3h5.6c2.9,0,4.6,1.2,4.6,3.1C383.9,45.5,382.2,46.6,379.3,46.6z M397,33.6
	c0-1.5,1.4-2.3,3.6-2.3c1.7,0,4,0.6,6.4,2l1.5-3.2c-2-1.3-4.8-2.3-7.7-2.3c-4.7,0-8,2.3-8,6.1c0,7.8,11.8,5.1,11.8,9.9
	c0,1.7-1.5,2.7-4.1,2.7c-2.3,0-5.2-1.1-7.4-3.2l-1.6,3.2c2.2,2.1,5.5,3.5,8.9,3.5c4.8,0,8.2-2.4,8.2-6.3
	C408.8,35.9,397,38.4,397,33.6z M412,31.4h6.9v18.6h3.7V31.4h6.9V28H412V31.4z M442.7,28c-6.5,0-11.6,4.7-11.6,11
	c0,6.2,5.1,11.1,11.6,11.1c6.5,0,11.6-4.8,11.6-11.1C454.3,32.7,449.3,28,442.7,28z M442.8,46.8c-4.3,0-7.9-3.4-7.9-7.8
	c0-4.3,3.6-7.7,7.9-7.7c4.3,0,7.8,3.4,7.8,7.7C450.6,43.3,447.1,46.8,442.8,46.8z M477.5,35.5c0-4.7-3.2-7.5-8.8-7.5h-8.9v21.9h3.7
	v-6.6h5.2c0.3,0,0.7,0,1,0l4,6.6h4.2l-4.9-7.3C475.9,41.5,477.5,39,477.5,35.5z M468.7,40h-5.2v-8.7h5.2c3.4,0,5.3,1.4,5.3,4.2
	C474,38.6,472.1,40,468.7,40z M487.7,46.6v-6h10.7v-3.3h-10.7v-5.9h11.9V28H484v21.9h16v-3.3H487.7z"/>
<g>
	<path class="st1" d="M286.3,70c-0.7,0-1.3-0.6-1.3-1.3V1.3c0-0.7,0.6-1.3,1.3-1.3c0.7,0,1.3,0.6,1.3,1.3v67.3
		C287.6,69.4,287,70,286.3,70z"/>
</g>
</svg>
