<?xml version="1.0" encoding="utf-8"?>
<!-- Generator: Adobe Illustrator 16.0.3, SVG Export Plug-In . SVG Version: 6.00 Build 0)  -->
<!DOCTYPE svg PUBLIC "-//W3C//DTD SVG 1.1//EN" "http://www.w3.org/Graphics/SVG/1.1/DTD/svg11.dtd">
<svg version="1.1" id="Layer_1" xmlns="http://www.w3.org/2000/svg" xmlns:xlink="http://www.w3.org/1999/xlink" x="0px" y="0px"
	 width="150px" height="150px" viewBox="0 0 150 150" enable-background="new 0 0 150 150" xml:space="preserve">
<path fill="#FFFFFF" d="M78.674,67.966c-13.997-3.638-18.499-7.369-18.499-13.228c0-6.721,6.197-11.439,16.649-11.439
	c10.979,0,15.046,5.242,15.417,12.951h13.629c-0.402-10.638-6.908-20.319-19.795-23.496V19.25H67.574v13.319
	c-11.963,2.622-21.583,10.33-21.583,22.262c0,14.245,11.81,21.336,28.984,25.468c15.447,3.7,18.501,9.097,18.501,14.893
	c0,4.225-2.993,11.009-16.651,11.009c-12.704,0-17.729-5.706-18.377-12.951H44.85c0.771,13.504,10.854,21.06,22.725,23.619v13.381
	h18.501v-13.259c11.995-2.312,21.582-9.249,21.582-21.923C107.657,77.616,92.675,71.636,78.674,67.966z"/>
</svg>
